<svg xmlns="http://www.w3.org/2000/svg" width="160" height="20" viewBox="0 0 160 20" fill="none">
  <g clip-path="url(#clip0_1273_5284)">
    <path d="M31.1038 7.89795H28.4856V9.38932C27.6521 8.52449 26.58 8.00166 25.3764 8.00166C22.4913 8.00166 20.8252 10.2812 20.8252 13.1958C20.8252 16.1104 22.4913 18.4732 25.3764 18.4732C26.58 18.4732 27.6521 17.9311 28.4856 17.0465V17.1238C28.4856 17.5417 28.5682 18.1557 28.6492 18.2686H31.247C31.1722 18.1686 31.1038 17.378 31.1038 16.9644V7.89795ZM25.8866 16.0632C24.333 16.0632 23.4418 14.7843 23.4418 13.207C23.4418 11.6298 24.3328 10.3509 25.8866 10.3509C27.5318 10.3509 28.3927 11.7014 28.3927 13.207C28.3927 14.7127 27.4645 16.0632 25.8866 16.0632Z" fill="#27262B"/>
    <path d="M17.6118 14.5425V10.7434H19.5883V8.26613H17.6118L17.5931 5.28052H14.9843L14.9839 7.44793C14.9839 7.89978 14.6175 8.26593 14.1657 8.26593H13.2933L13.2861 10.6305L14.8816 10.6491V14.7471C14.8816 16.4144 15.5491 18.0144 17.1196 18.3807C17.7836 18.5356 18.6948 18.4454 19.6681 18.0921V15.6719C18.6511 16.1098 17.612 16.1614 17.612 14.5425H17.6118Z" fill="#27262B"/>
    <path d="M47.7438 3.33643H44.9824V17.1237C44.9824 17.5416 45.0651 18.1557 45.1461 18.2686H47.887C47.8122 18.1686 47.7438 17.378 47.7438 16.9644V3.33643Z" fill="#27262B"/>
    <path d="M38.8677 8.0018C37.6641 8.0018 36.592 8.52463 35.7585 9.38947V3.33643H33.1403V16.9644C33.1403 17.3778 33.0719 18.1686 32.9971 18.2686H35.5949C35.6759 18.1557 35.7585 17.5416 35.7585 17.1237V17.0464C36.592 17.9311 37.6641 18.4731 38.8677 18.4731C41.7528 18.4731 43.4189 16.1104 43.4189 13.1957C43.4189 10.2811 41.7528 8.0016 38.8677 8.0016V8.0018ZM38.3575 16.0631C36.7796 16.0631 35.8514 14.7016 35.8514 13.207C35.8514 11.7123 36.7121 10.3509 38.3575 10.3509C39.9111 10.3509 40.8023 11.6297 40.8023 13.207C40.8023 14.7843 39.9113 16.0631 38.3575 16.0631Z" fill="#27262B"/>
    <path d="M100.437 3.36621H97.8185V9.39001C96.985 8.52517 95.872 8.00234 94.6684 8.00234C91.7832 8.00234 90.1172 10.2818 90.1172 13.1965C90.1172 16.1111 91.7832 18.4739 94.6684 18.4739C95.872 18.4739 96.985 17.9318 97.8185 17.0471V17.104C97.8185 17.5219 97.9011 18.136 97.9821 18.2489H100.58C100.505 18.1488 100.437 17.3583 100.437 16.9447V3.36621ZM95.1786 16.0637C93.625 16.0637 92.7338 14.7848 92.7338 13.2075C92.7338 11.6302 93.6248 10.3514 95.1786 10.3514C96.8238 10.3514 97.7256 11.7018 97.7256 13.2075C97.7256 14.7132 96.7565 16.0637 95.1786 16.0637Z" fill="#27262B"/>
    <path d="M59.3098 13.1244C59.3098 10.1703 57.4049 7.89795 54.2687 7.89795C51.1326 7.89795 49.2959 10.5121 49.2959 13.1244C49.2959 15.7367 51.1422 18.4732 54.2687 18.4732C56.6118 18.4732 58.5424 17.1567 59.2243 15.2487L56.8047 14.6514C56.4756 15.5778 55.4398 16.2058 54.3642 16.2058C53.0952 16.2058 52.2441 15.3407 52.1175 14.085H59.2233C59.2751 13.7861 59.3096 13.4523 59.3096 13.1242L59.3098 13.1244ZM52.2079 12.0544C52.3748 10.932 53.3503 10.1055 54.5279 10.1055C55.7632 10.1055 56.4682 10.9474 56.6374 12.0544H52.2077H52.2079Z" fill="#27262B"/>
    <path d="M69.6618 3.70508L64.1367 18.269H67.0822L68.4267 14.7248H74.3906L75.7351 18.269H78.6806L73.1555 3.70508H69.6616H69.6618ZM69.4045 12.1475L71.4087 6.86456L73.4129 12.1475H69.4045Z" fill="#27262B"/>
    <path d="M88.5036 8.22514H85.8854V13.7437C85.8854 14.8935 85.1414 15.9406 83.9301 15.9406C82.7187 15.9406 82.0533 14.9569 82.0533 13.7437V8.20898H79.4365V13.8372C79.4365 16.3977 80.8064 18.4735 83.179 18.4735C84.2257 18.4735 85.1889 17.9411 85.8852 17.083V17.1034C85.8852 17.5213 85.9678 18.1354 86.0488 18.2483H88.6466C88.5717 18.1483 88.5034 17.3577 88.5034 16.9441V8.22494L88.5036 8.22514Z" fill="#27262B"/>
    <path d="M105.473 8.26611H102.691V17.1037C102.691 17.5216 102.774 18.1357 102.855 18.2486H105.616C105.542 18.1485 105.473 17.358 105.473 16.9444V8.26611Z" fill="#27262B"/>
    <path d="M104.428 6.36568C105.349 6.21623 105.974 5.34866 105.825 4.42792C105.675 3.50718 104.808 2.88193 103.887 3.03139C102.966 3.18084 102.341 4.04841 102.49 4.96915C102.64 5.88989 103.507 6.51514 104.428 6.36568Z" fill="#27262B"/>
    <path d="M112.418 7.89795C109.583 7.89795 107.258 10.2 107.258 13.1434C107.258 16.0869 109.583 18.4732 112.418 18.4732C114.888 18.4732 117.591 16.1505 117.591 13.2068C117.591 10.2632 114.888 7.89795 112.418 7.89795ZM112.425 16.1745C110.892 16.1745 109.954 14.9429 109.954 13.1856C109.954 11.4283 110.86 10.1967 112.425 10.1967C113.989 10.1967 114.895 11.4254 114.895 13.1856C114.895 14.9457 113.989 16.1745 112.425 16.1745Z" fill="#27262B"/>
    <path d="M140.879 0.879843C130.819 0.879843 122.664 9.03485 122.664 19.0944H123.59C124.115 19.005 124.665 18.8015 125.28 18.4724C126.109 18.0289 126.946 17.4102 127.755 16.8116C129.424 15.577 131.15 14.3002 133.125 14.3002C135.1 14.3002 136.793 15.5852 138.474 16.8278C138.496 16.8446 138.519 16.8611 138.541 16.8779C139.053 16.2939 139.562 15.6416 140.089 14.967C141.015 13.7816 141.972 12.556 143.033 11.612C144.352 10.4381 145.656 9.86737 147.019 9.86737C148.382 9.86737 149.732 10.4557 151.045 11.666C152.099 12.6366 153.028 13.8872 153.927 15.0967C154.754 16.2096 155.535 17.2608 156.35 18.0263C157.042 18.6757 157.652 19.0202 158.249 19.0942H159.093C159.093 9.03464 150.938 0.879639 140.879 0.879639L140.879 0.879843Z" fill="#27262B"/>
    <path d="M149.539 13.3017C148.643 12.4761 147.842 12.0916 147.02 12.0916C146.197 12.0916 145.418 12.4671 144.512 13.2736C143.602 14.0839 142.708 15.2289 141.843 16.3362C141.365 16.9478 140.879 17.57 140.376 18.1569C141.171 18.6484 141.963 19.0166 142.73 19.0945H154.28C153.53 18.2902 152.827 17.3442 152.143 16.4235C151.305 15.2964 150.439 14.1309 149.539 13.3019L149.539 13.3017Z" fill="#27262B"/>
    <path d="M129.078 18.5998C128.856 18.7642 128.632 18.9299 128.405 19.0944H135.345C135.848 19.042 136.357 18.827 136.905 18.4339C135.541 17.4285 134.255 16.5244 133.125 16.5244C131.884 16.5244 130.521 17.5324 129.078 18.5998Z" fill="#27262B"/>
    <path d="M6.86983 9.49711C5.0972 9.2453 4.39989 8.69772 4.39989 7.86029C4.39989 7.02287 5.14363 5.93446 6.87228 5.93446C8.32602 5.93446 9.323 6.7635 9.59423 8.00491L12.2483 7.18589C11.7533 4.45024 8.92413 3.33667 6.74649 3.33667C4.15872 3.33667 1.43677 5.16801 1.43677 7.93189C1.43677 10.9938 4.6208 12.0331 6.8054 12.3391C8.79035 12.6173 9.43857 13.3109 9.43857 14.3126C9.43857 15.1605 8.5183 16.0431 6.78965 16.0431C5.06099 16.0431 3.88872 14.9807 3.57535 13.3926L0.799805 14.0338C1.26352 17.1749 3.8026 18.6368 6.74649 18.6368C9.69037 18.6368 12.4426 17.0125 12.4426 13.943C12.4426 11.2028 9.7233 9.90232 6.86962 9.4969L6.86983 9.49711Z" fill="#27262B"/>
  </g>
  <defs>
    <clipPath id="clip0_1273_5284">
      <rect width="160" height="19.2" fill="white" transform="translate(0 0.399902)"/>
    </clipPath>
  </defs>
</svg>