<svg width="20" height="20" viewBox="0 0 20 20" fill="none" xmlns="http://www.w3.org/2000/svg">
<path fill-rule="evenodd" clip-rule="evenodd" d="M6.67467 0.0510735C6.44138 0.140572 6.26559 0.2979 6.15818 0.513511L6.05847 0.713593L6.05933 10.0059C6.06019 19.2746 6.06039 19.2986 6.13999 19.4742C6.30612 19.8407 6.55994 20 6.97771 20C7.40741 20 7.69026 19.8109 7.83531 19.4269C7.8932 19.2736 7.89777 18.4518 7.88803 9.94627L7.87739 0.633404L7.75903 0.441927C7.53528 0.0800981 7.05266 -0.093893 6.67467 0.0510735ZM9.63765 3.47046C9.45067 3.55585 9.25681 3.74682 9.16027 3.94068C9.09377 4.07423 9.08939 4.39357 9.078 9.89064C9.0694 14.048 9.07836 15.7571 9.10949 15.9019C9.17028 16.1849 9.34317 16.408 9.5911 16.5234C10.152 16.7846 10.7867 16.485 10.9074 15.902C10.9364 15.7619 10.9461 13.9087 10.9389 9.89064L10.9285 4.08181L10.8439 3.92535C10.7347 3.72327 10.5363 3.53445 10.3528 3.45794C10.158 3.3767 9.83037 3.38245 9.63765 3.47046ZM15.6529 3.49698C15.4207 3.61269 15.263 3.80088 15.1872 4.05291C15.106 4.32285 15.1076 15.6986 15.1889 15.9688C15.3172 16.3951 15.6766 16.6406 16.1301 16.6117C16.4835 16.5892 16.7164 16.4387 16.8736 16.1312L16.9916 15.9006V9.99121V4.08181L16.9064 3.92269C16.6526 3.44844 16.116 3.26619 15.6529 3.49698ZM3.65776 5.13437C3.43464 5.21737 3.23577 5.39504 3.12487 5.61049L3.02693 5.80088V9.98738C3.02693 14.5505 3.01675 14.3416 3.25228 14.6099C3.68956 15.1079 4.49427 14.9999 4.79034 14.4034C4.86295 14.2571 4.86541 14.1138 4.86541 10.008C4.86541 5.94197 4.86236 5.75808 4.7925 5.62692C4.56441 5.19871 4.06626 4.98248 3.65776 5.13437ZM12.6496 6.87475C12.5636 6.91468 12.4368 7.00669 12.368 7.07925C12.1128 7.34821 12.1216 7.24409 12.1216 10.0218V12.5417L12.2308 12.7509C12.3804 13.0372 12.6213 13.1868 12.9684 13.2089C13.2954 13.2297 13.5141 13.1468 13.7193 12.9242C13.8054 12.8308 13.8947 12.6865 13.9178 12.6036C13.9786 12.3843 13.9758 7.62477 13.9146 7.42074C13.854 7.21831 13.6295 6.96291 13.4342 6.8742C13.2239 6.77871 12.856 6.77895 12.6496 6.87475ZM0.508006 8.58551C0.275965 8.70114 0.0966154 8.91679 0.0315643 9.15834C0.00617759 9.25261 -0.00532272 9.62312 0.00234416 10.1009C0.0138053 10.8184 0.022411 10.902 0.099158 11.0446C0.207355 11.2456 0.32404 11.3527 0.543015 11.452C0.872065 11.6012 1.26726 11.5427 1.52981 11.306C1.8118 11.0518 1.83203 10.9654 1.83301 10.0106C1.83379 9.23931 1.82733 9.15861 1.75219 9.0034C1.52793 8.54014 0.973064 8.35379 0.508006 8.58551ZM18.7768 8.53392C18.5801 8.6082 18.3597 8.81063 18.2669 9.00211C18.191 9.15893 18.1847 9.23724 18.1855 10.0106C18.1865 10.9654 18.2067 11.0518 18.4887 11.306C18.7512 11.5427 19.1464 11.6012 19.4755 11.452C19.6945 11.3527 19.8112 11.2456 19.9193 11.0446C19.9984 10.8976 20.0036 10.8344 20.0036 10.0049V9.12173L19.8852 8.93025C19.7182 8.66015 19.4615 8.50834 19.1486 8.49472C19.0165 8.48897 18.8491 8.50662 18.7768 8.53392Z" fill="white"/>
<path fill-rule="evenodd" clip-rule="evenodd" d="M6.67467 0.0510735C6.44138 0.140572 6.26559 0.2979 6.15818 0.513511L6.05847 0.713593L6.05933 10.0059C6.06019 19.2746 6.06039 19.2986 6.13999 19.4742C6.30612 19.8407 6.55994 20 6.97771 20C7.40741 20 7.69026 19.8109 7.83531 19.4269C7.8932 19.2736 7.89777 18.4518 7.88803 9.94627L7.87739 0.633404L7.75903 0.441927C7.53528 0.0800981 7.05266 -0.093893 6.67467 0.0510735ZM9.63765 3.47046C9.45067 3.55585 9.25681 3.74682 9.16027 3.94068C9.09377 4.07423 9.08939 4.39357 9.078 9.89064C9.0694 14.048 9.07836 15.7571 9.10949 15.9019C9.17028 16.1849 9.34317 16.408 9.5911 16.5234C10.152 16.7846 10.7867 16.485 10.9074 15.902C10.9364 15.7619 10.9461 13.9087 10.9389 9.89064L10.9285 4.08181L10.8439 3.92535C10.7347 3.72327 10.5363 3.53445 10.3528 3.45794C10.158 3.3767 9.83037 3.38245 9.63765 3.47046ZM15.6529 3.49698C15.4207 3.61269 15.263 3.80088 15.1872 4.05291C15.106 4.32285 15.1076 15.6986 15.1889 15.9688C15.3172 16.3951 15.6766 16.6406 16.1301 16.6117C16.4835 16.5892 16.7164 16.4387 16.8736 16.1312L16.9916 15.9006V9.99121V4.08181L16.9064 3.92269C16.6526 3.44844 16.116 3.26619 15.6529 3.49698ZM3.65776 5.13437C3.43464 5.21737 3.23577 5.39504 3.12487 5.61049L3.02693 5.80088V9.98738C3.02693 14.5505 3.01675 14.3416 3.25228 14.6099C3.68956 15.1079 4.49427 14.9999 4.79034 14.4034C4.86295 14.2571 4.86541 14.1138 4.86541 10.008C4.86541 5.94197 4.86236 5.75808 4.7925 5.62692C4.56441 5.19871 4.06626 4.98248 3.65776 5.13437ZM12.6496 6.87475C12.5636 6.91468 12.4368 7.00669 12.368 7.07925C12.1128 7.34821 12.1216 7.24409 12.1216 10.0218V12.5417L12.2308 12.7509C12.3804 13.0372 12.6213 13.1868 12.9684 13.2089C13.2954 13.2297 13.5141 13.1468 13.7193 12.9242C13.8054 12.8308 13.8947 12.6865 13.9178 12.6036C13.9786 12.3843 13.9758 7.62477 13.9146 7.42074C13.854 7.21831 13.6295 6.96291 13.4342 6.8742C13.2239 6.77871 12.856 6.77895 12.6496 6.87475ZM0.508006 8.58551C0.275965 8.70114 0.0966154 8.91679 0.0315643 9.15834C0.00617759 9.25261 -0.00532272 9.62312 0.00234416 10.1009C0.0138053 10.8184 0.022411 10.902 0.099158 11.0446C0.207355 11.2456 0.32404 11.3527 0.543015 11.452C0.872065 11.6012 1.26726 11.5427 1.52981 11.306C1.8118 11.0518 1.83203 10.9654 1.83301 10.0106C1.83379 9.23931 1.82733 9.15861 1.75219 9.0034C1.52793 8.54014 0.973064 8.35379 0.508006 8.58551ZM18.7768 8.53392C18.5801 8.6082 18.3597 8.81063 18.2669 9.00211C18.191 9.15893 18.1847 9.23724 18.1855 10.0106C18.1865 10.9654 18.2067 11.0518 18.4887 11.306C18.7512 11.5427 19.1464 11.6012 19.4755 11.452C19.6945 11.3527 19.8112 11.2456 19.9193 11.0446C19.9984 10.8976 20.0036 10.8344 20.0036 10.0049V9.12173L19.8852 8.93025C19.7182 8.66015 19.4615 8.50834 19.1486 8.49472C19.0165 8.48897 18.8491 8.50662 18.7768 8.53392Z" fill="white"/>
</svg>
