<svg width="20" height="20" viewBox="0 0 20 20" fill="none" xmlns="http://www.w3.org/2000/svg">
<path fill-rule="evenodd" clip-rule="evenodd" d="M13.3289 0.0510735C13.5622 0.140572 13.7379 0.2979 13.8454 0.513511L13.9451 0.713593L13.9442 10.0059C13.9434 19.2746 13.9432 19.2986 13.8636 19.4742C13.6974 19.8407 13.4436 20 13.0258 20C12.5961 20 12.3133 19.8109 12.1682 19.4269C12.1103 19.2736 12.1058 18.4518 12.1155 9.94627L12.1261 0.633404L12.2445 0.441927C12.4683 0.0800981 12.9509 -0.093893 13.3289 0.0510735ZM10.3659 3.47046C10.5529 3.55585 10.7467 3.74682 10.8433 3.94068C10.9098 4.07423 10.9142 4.39357 10.9255 9.89064C10.9341 14.048 10.9252 15.7571 10.894 15.9019C10.8333 16.1849 10.6604 16.408 10.4124 16.5234C9.85151 16.7846 9.21684 16.485 9.09617 15.902C9.06718 15.7619 9.05744 13.9087 9.06464 9.89064L9.07504 4.08181L9.15961 3.92535C9.26887 3.72327 9.46727 3.53445 9.65076 3.45794C9.84552 3.3767 10.1732 3.38245 10.3659 3.47046ZM4.35061 3.49698C4.58284 3.61269 4.74052 3.80088 4.81633 4.05291C4.89758 4.32285 4.89593 15.6986 4.81461 15.9688C4.68635 16.3951 4.32694 16.6406 3.87342 16.6117C3.52008 16.5892 3.28714 16.4387 3.12989 16.1312L3.01196 15.9006V9.99121V4.08181L3.09715 3.92269C3.35098 3.44844 3.88754 3.26619 4.35061 3.49698ZM16.3458 5.13437C16.5689 5.21737 16.7678 5.39504 16.8787 5.61049L16.9766 5.80088V9.98738C16.9766 14.5505 16.9868 14.3416 16.7513 14.6099C16.314 15.1079 15.5093 14.9999 15.2132 14.4034C15.1406 14.2571 15.1381 14.1138 15.1381 10.008C15.1381 5.94197 15.1412 5.75808 15.211 5.62692C15.4391 5.19871 15.9373 4.98248 16.3458 5.13437ZM7.35391 6.87475C7.43997 6.91468 7.5667 7.00669 7.63551 7.07925C7.89071 7.34821 7.88198 7.24409 7.88198 10.0218V12.5417L7.77269 12.7509C7.62311 13.0372 7.38219 13.1868 7.03515 13.2089C6.70809 13.2297 6.48939 13.1468 6.28426 12.9242C6.19813 12.8308 6.10882 12.6865 6.08578 12.6036C6.02492 12.3843 6.02777 7.62477 6.08891 7.42074C6.14955 7.21831 6.37407 6.96291 6.56938 6.8742C6.77964 6.77871 7.14749 6.77895 7.35391 6.87475ZM19.4955 8.58551C19.7276 8.70114 19.9069 8.91679 19.972 9.15834C19.9974 9.25261 20.0089 9.62312 20.0012 10.1009C19.9897 10.8184 19.9811 10.902 19.9044 11.0446C19.7962 11.2456 19.6795 11.3527 19.4605 11.452C19.1315 11.6012 18.7363 11.5427 18.4737 11.306C18.1917 11.0518 18.1715 10.9654 18.1705 10.0106C18.1698 9.23931 18.1762 9.15861 18.2513 9.0034C18.4756 8.54014 19.0305 8.35379 19.4955 8.58551ZM1.22679 8.53392C1.42343 8.6082 1.64389 8.81063 1.7366 9.00211C1.81252 9.15893 1.81882 9.23724 1.81804 10.0106C1.81706 10.9654 1.79683 11.0518 1.51484 11.306C1.25229 11.5427 0.857096 11.6012 0.528046 11.452C0.309071 11.3527 0.192387 11.2456 0.0841904 11.0446C0.00509644 10.8976 -2.86102e-05 10.8344 -2.86102e-05 10.0049V9.12173L0.118338 8.93025C0.285328 8.66015 0.542089 8.50834 0.854904 8.49472C0.98708 8.48897 1.15442 8.50662 1.22679 8.53392Z" fill="white"/>
<path fill-rule="evenodd" clip-rule="evenodd" d="M13.3289 0.0510735C13.5622 0.140572 13.7379 0.2979 13.8454 0.513511L13.9451 0.713593L13.9442 10.0059C13.9434 19.2746 13.9432 19.2986 13.8636 19.4742C13.6974 19.8407 13.4436 20 13.0258 20C12.5961 20 12.3133 19.8109 12.1682 19.4269C12.1103 19.2736 12.1058 18.4518 12.1155 9.94627L12.1261 0.633404L12.2445 0.441927C12.4683 0.0800981 12.9509 -0.093893 13.3289 0.0510735ZM10.3659 3.47046C10.5529 3.55585 10.7467 3.74682 10.8433 3.94068C10.9098 4.07423 10.9142 4.39357 10.9255 9.89064C10.9341 14.048 10.9252 15.7571 10.894 15.9019C10.8333 16.1849 10.6604 16.408 10.4124 16.5234C9.85151 16.7846 9.21684 16.485 9.09617 15.902C9.06718 15.7619 9.05744 13.9087 9.06464 9.89064L9.07504 4.08181L9.15961 3.92535C9.26887 3.72327 9.46727 3.53445 9.65076 3.45794C9.84552 3.3767 10.1732 3.38245 10.3659 3.47046ZM4.35061 3.49698C4.58284 3.61269 4.74052 3.80088 4.81633 4.05291C4.89758 4.32285 4.89593 15.6986 4.81461 15.9688C4.68635 16.3951 4.32694 16.6406 3.87342 16.6117C3.52008 16.5892 3.28714 16.4387 3.12989 16.1312L3.01196 15.9006V9.99121V4.08181L3.09715 3.92269C3.35098 3.44844 3.88754 3.26619 4.35061 3.49698ZM16.3458 5.13437C16.5689 5.21737 16.7678 5.39504 16.8787 5.61049L16.9766 5.80088V9.98738C16.9766 14.5505 16.9868 14.3416 16.7513 14.6099C16.314 15.1079 15.5093 14.9999 15.2132 14.4034C15.1406 14.2571 15.1381 14.1138 15.1381 10.008C15.1381 5.94197 15.1412 5.75808 15.211 5.62692C15.4391 5.19871 15.9373 4.98248 16.3458 5.13437ZM7.35391 6.87475C7.43997 6.91468 7.5667 7.00669 7.63551 7.07925C7.89071 7.34821 7.88198 7.24409 7.88198 10.0218V12.5417L7.77269 12.7509C7.62311 13.0372 7.38219 13.1868 7.03515 13.2089C6.70809 13.2297 6.48939 13.1468 6.28426 12.9242C6.19813 12.8308 6.10882 12.6865 6.08578 12.6036C6.02492 12.3843 6.02777 7.62477 6.08891 7.42074C6.14955 7.21831 6.37407 6.96291 6.56938 6.8742C6.77964 6.77871 7.14749 6.77895 7.35391 6.87475ZM19.4955 8.58551C19.7276 8.70114 19.9069 8.91679 19.972 9.15834C19.9974 9.25261 20.0089 9.62312 20.0012 10.1009C19.9897 10.8184 19.9811 10.902 19.9044 11.0446C19.7962 11.2456 19.6795 11.3527 19.4605 11.452C19.1315 11.6012 18.7363 11.5427 18.4737 11.306C18.1917 11.0518 18.1715 10.9654 18.1705 10.0106C18.1698 9.23931 18.1762 9.15861 18.2513 9.0034C18.4756 8.54014 19.0305 8.35379 19.4955 8.58551ZM1.22679 8.53392C1.42343 8.6082 1.64389 8.81063 1.7366 9.00211C1.81252 9.15893 1.81882 9.23724 1.81804 10.0106C1.81706 10.9654 1.79683 11.0518 1.51484 11.306C1.25229 11.5427 0.857096 11.6012 0.528046 11.452C0.309071 11.3527 0.192387 11.2456 0.0841904 11.0446C0.00509644 10.8976 -2.86102e-05 10.8344 -2.86102e-05 10.0049V9.12173L0.118338 8.93025C0.285328 8.66015 0.542089 8.50834 0.854904 8.49472C0.98708 8.48897 1.15442 8.50662 1.22679 8.53392Z" fill="white"/>
</svg>
