<svg width="12" height="10" viewBox="0 0 12 10" fill="none" xmlns="http://www.w3.org/2000/svg">
<path fill-rule="evenodd" clip-rule="evenodd" d="M5.15122 0.0450383C5.06067 0.076292 4.99091 0.122985 4.9135 0.204137C4.72516 0.401555 4.72963 0.357014 4.72963 2.03877V3.50831H3.9845C3.25017 3.50831 3.23822 3.50908 3.16114 3.56101C3.11812 3.59002 3.06333 3.64729 3.03938 3.68827C2.98693 3.77808 2.98045 3.96794 3.02681 4.05641C3.06668 4.13254 5.71206 6.90729 5.79913 6.96434C5.87263 7.01251 6.09464 7.01836 6.17467 6.97426C6.24127 6.93756 8.88293 4.1771 8.94301 4.08145C9.00381 3.9846 9.00259 3.77939 8.94057 3.6777C8.915 3.63575 8.85979 3.58054 8.81785 3.55498C8.74601 3.51116 8.69875 3.50847 7.99887 3.5084L7.25612 3.50831V2.03877C7.25612 0.340007 7.26209 0.396268 7.0606 0.194803C6.87383 0.00802979 6.82463 -0.000859759 5.98277 5.25876e-05C5.35491 0.000730999 5.26562 0.00555007 5.15122 0.0450383ZM0.573444 8.04302C0.346294 8.12174 0.137553 8.32767 0.0491493 8.56029C-0.0183175 8.73785 -0.015791 9.25485 0.0534304 9.43987C0.131448 9.64842 0.268206 9.79734 0.481859 9.90643L0.665123 10H5.99288H11.3206L11.5039 9.90643C11.719 9.79662 11.8543 9.6484 11.9343 9.43491C11.9801 9.31265 11.9847 9.26231 11.9777 8.95899C11.9705 8.6457 11.965 8.60989 11.9063 8.49035C11.8252 8.3251 11.6564 8.15629 11.4911 8.07514L11.3617 8.01155L6.02797 8.00636C0.956793 8.00142 0.688306 8.00322 0.573444 8.04302Z" fill="white"/>
</svg>
