<?xml version="1.0" encoding="utf-8"?>
<!-- Generator: Adobe Illustrator 28.0.0, SVG Export Plug-In . SVG Version: 6.00 Build 0)  -->
<svg width="16" height="12" version="1.1" id="Шар_1" xmlns="http://www.w3.org/2000/svg" xmlns:xlink="http://www.w3.org/1999/xlink" x="0px" y="0px"
	 viewBox="0 0 16 12" style="enable-background:new 0 0 16 12;" xml:space="preserve">
<style type="text/css">
	.st0{fill-rule:evenodd;clip-rule:evenodd;fill:#FFFFFF;}
</style>
<path class="st0" d="M6.7,0.8c0,0-0.1,0-0.1,0.1c0,0-0.9,0.7-2,1.6L2.7,4L1.6,4L0.5,4L0.3,4.1C0.2,4.2,0.1,4.3,0.1,4.4L0,4.5v1.6
	v1.6l0.1,0.1c0.1,0.2,0.3,0.3,0.5,0.3c0.1,0,0.5,0,1.2,0h1l1.9,1.6c1.4,1.1,1.9,1.6,2,1.6c0.4,0.1,0.7,0,0.9-0.4l0.1-0.1V6.1V1.3
	L7.5,1.2C7.3,0.8,7,0.7,6.7,0.8z M12.7,7.5L12.7,7.5c-0.3,0.3-0.6,0.3-0.9,0L9.7,5.3c-0.2-0.2-0.2-0.6,0-0.8l0,0
	c0.2-0.2,0.6-0.2,0.8,0l2.2,2.2C12.9,6.9,12.9,7.3,12.7,7.5z M9.7,7.5L9.7,7.5c-0.2-0.2-0.2-0.6,0-0.8l2.2-2.2
	c0.2-0.2,0.6-0.2,0.8,0l0,0c0.2,0.2,0.2,0.6,0,0.8l-2.2,2.2C10.3,7.7,9.9,7.7,9.7,7.5z"/>
</svg>
