<svg width="18" height="10" viewBox="0 0 18 10" fill="none" xmlns="http://www.w3.org/2000/svg">
<path fill-rule="evenodd" clip-rule="evenodd" d="M9.11883 0.0254864C8.8408 0.103409 8.66759 0.298636 8.59451 0.61643C8.57801 0.688112 8.57091 2.04341 8.57145 5.0085C8.57209 8.51062 8.5777 9.31925 8.60206 9.41871C8.66437 9.67321 8.81505 9.86122 9.0293 9.95186C9.11649 9.98874 9.17795 9.99895 9.31861 9.99995C9.52263 10.0014 9.65347 9.97365 9.87937 9.88112C10.014 9.82597 16.2368 6.11491 16.6225 5.85972C16.7751 5.75875 16.9443 5.5801 17.0318 5.42756C17.2026 5.12948 17.1745 4.74979 16.9603 4.46259C16.7944 4.24017 16.693 4.17571 13.4408 2.22434C11.6926 1.17537 10.1689 0.26798 10.0547 0.207919C9.70982 0.0263277 9.35954 -0.0419499 9.11883 0.0254864Z" fill="white"/>
<path fill-rule="evenodd" clip-rule="evenodd" d="M0.547412 0.0254864C0.269378 0.103409 0.0961669 0.298636 0.0230916 0.61643C0.00659212 0.688112 -0.000507715 2.04341 2.81267e-05 5.0085C0.000675601 8.51062 0.00627949 9.31925 0.0306379 9.41871C0.0929518 9.67321 0.243635 9.86122 0.457882 9.95186C0.545068 9.98874 0.606533 9.99895 0.747192 9.99995C0.951213 10.0014 1.08205 9.97365 1.30795 9.88112C1.44262 9.82597 7.66535 6.11491 8.05106 5.85972C8.20371 5.75875 8.3729 5.5801 8.46034 5.42756C8.63122 5.12948 8.60309 4.74979 8.38885 4.46259C8.22294 4.24017 8.1216 4.17571 4.8694 2.22434C3.12117 1.17537 1.59744 0.26798 1.48333 0.207919C1.1384 0.0263277 0.788117 -0.0419499 0.547412 0.0254864Z" fill="white"/>
</svg>
