<svg width="10" height="12" viewBox="0 0 10 12" fill="none" xmlns="http://www.w3.org/2000/svg">
<path fill-rule="evenodd" clip-rule="evenodd" d="M1.1278 0.0413557C0.59991 0.1631 0.185854 0.523299 0.0465961 0.981884C0.00612112 1.11515 0 1.77423 0 5.99918C0 10.2803 0.00571516 10.8819 0.0478141 11.0205C0.187447 11.4803 0.606968 11.839 1.14595 11.9594C1.39039 12.014 2.11026 12.0134 2.35661 11.9584C2.89527 11.838 3.31017 11.481 3.45124 11.0165C3.5216 10.7848 3.5216 1.21353 3.45124 0.981884C3.31017 0.517379 2.89527 0.160368 2.35661 0.0400163C2.11501 -0.0139585 1.36403 -0.0131549 1.1278 0.0413557ZM7.62379 0.0413557C7.0959 0.1631 6.68184 0.523299 6.54258 0.981884C6.50211 1.11515 6.49599 1.77423 6.49599 5.99918C6.49599 10.2803 6.5017 10.8819 6.5438 11.0205C6.68343 11.4803 7.10295 11.839 7.64193 11.9594C7.88638 12.014 8.60624 12.0134 8.85259 11.9584C9.39126 11.838 9.80616 11.481 9.94723 11.0165C10.0176 10.7848 10.0176 1.21353 9.94723 0.981884C9.80616 0.517379 9.39126 0.160368 8.85259 0.0400163C8.61099 -0.0139585 7.86002 -0.0131549 7.62379 0.0413557Z" fill="white"/>
</svg>
