<svg width="9" height="10" viewBox="0 0 9 10" fill="none" xmlns="http://www.w3.org/2000/svg">
<path fill-rule="evenodd" clip-rule="evenodd" d="M0.872609 0.0310926C0.481931 0.139896 0.151704 0.469118 0.0351101 0.866046C0.00309866 0.975073 -0.000450704 1.39069 4.04063e-05 4.99584C0.0004199 7.68062 0.00823295 9.03754 0.0237252 9.10482C0.113755 9.49567 0.471908 9.85856 0.873033 9.96531C1.15051 10.0392 1.54117 9.99165 1.77764 9.85532C1.82864 9.82592 3.26012 8.92456 4.95869 7.85229C7.7269 6.10481 8.06357 5.88615 8.2068 5.74279C8.46508 5.48422 8.58091 5.19159 8.57696 4.80761C8.57239 4.36442 8.35425 3.96669 7.986 3.73009C7.68444 3.53632 1.74384 0.118108 1.61794 0.0658945C1.44832 -0.00442354 1.06452 -0.0223491 0.872609 0.0310926Z" fill="white"/>
</svg>
