<svg width="18" height="10" viewBox="0 0 18 10" fill="none" xmlns="http://www.w3.org/2000/svg">
<path fill-rule="evenodd" clip-rule="evenodd" d="M8.02405 0.0254864C8.30209 0.103409 8.4753 0.298636 8.54837 0.61643C8.56487 0.688112 8.57197 2.04341 8.57144 5.0085C8.57079 8.51062 8.56519 9.31925 8.54083 9.41871C8.47851 9.67321 8.32783 9.86122 8.11358 9.95186C8.0264 9.98874 7.96493 9.99895 7.82427 9.99995C7.62025 10.0014 7.48942 9.97365 7.26352 9.88112C7.12884 9.82597 0.906117 6.11491 0.5204 5.85972C0.367753 5.75875 0.198561 5.5801 0.111129 5.42756C-0.0597601 5.12948 -0.0316286 4.74979 0.182619 4.46259C0.348529 4.24017 0.449869 4.17571 3.70207 2.22434C5.45029 1.17537 6.97403 0.26798 7.08814 0.207919C7.43306 0.0263277 7.78335 -0.0419499 8.02405 0.0254864Z" fill="white"/>
<path fill-rule="evenodd" clip-rule="evenodd" d="M16.5955 0.0254864C16.8735 0.103409 17.0467 0.298636 17.1198 0.61643C17.1363 0.688112 17.1434 2.04341 17.1429 5.0085C17.1422 8.51062 17.1366 9.31925 17.1122 9.41871C17.0499 9.67321 16.8992 9.86122 16.685 9.95186C16.5978 9.98874 16.5364 9.99895 16.3957 9.99995C16.1917 10.0014 16.0608 9.97365 15.8349 9.88112C15.7003 9.82597 9.47754 6.11491 9.09182 5.85972C8.93917 5.75875 8.76998 5.5801 8.68255 5.42756C8.51166 5.12948 8.53979 4.74979 8.75404 4.46259C8.91995 4.24017 9.02129 4.17571 12.2735 2.22434C14.0217 1.17537 15.5454 0.26798 15.6596 0.207919C16.0045 0.0263277 16.3548 -0.0419499 16.5955 0.0254864Z" fill="white"/>
</svg>
