<svg width="16" height="12" viewBox="0 0 16 12" fill="none" xmlns="http://www.w3.org/2000/svg">
<path fill-rule="evenodd" clip-rule="evenodd" d="M12.1735 0.0162188C12.0236 0.0652968 11.917 0.1366 11.7941 0.269951C11.6375 0.439852 11.5842 0.564241 11.5842 0.759787C11.5842 0.991912 11.6369 1.12158 11.8196 1.33905C13.3515 3.16219 13.9147 5.49804 13.3708 7.77213C13.133 8.76628 12.6902 9.68823 12.0402 10.5429C11.9231 10.6969 11.8055 10.8658 11.7789 10.9182C11.6432 11.1856 11.7041 11.5082 11.9343 11.7421C12.1296 11.9406 12.2601 12.0003 12.4979 12C12.8143 11.9996 12.9288 11.9163 13.3211 11.4007C13.7756 10.8034 14.2927 9.8645 14.5457 9.17735C14.7901 8.51361 14.9675 7.76535 15.0511 7.04566C15.1112 6.52809 15.0936 5.29866 15.0193 4.8245C14.7542 3.1331 14.1022 1.6813 13.0309 0.397052C12.8869 0.22441 12.7748 0.120093 12.6882 0.0781779C12.5465 0.00955719 12.2887 -0.0214813 12.1735 0.0162188ZM6.65993 0.784724C6.61842 0.79731 6.55584 0.822954 6.52083 0.841701C6.48581 0.860448 5.6017 1.58471 4.55618 2.45119L2.65522 4.02658L1.55369 4.03498L0.452136 4.04338L0.30844 4.13225C0.203858 4.19696 0.142311 4.26407 0.0823567 4.37882L0 4.53646V6.09072V7.64494L0.0685618 7.77487C0.157698 7.94374 0.342072 8.08266 0.53075 8.12313C0.622568 8.14282 1.06928 8.15532 1.68094 8.15532H2.68101L4.59582 9.74182C5.97693 10.8861 6.5429 11.338 6.62641 11.363C6.99006 11.472 7.31713 11.3356 7.49738 10.9998L7.56066 10.8819V6.07725V1.27261L7.49534 1.15049C7.33352 0.847892 6.97255 0.689869 6.65993 0.784724ZM9.73787 2.40515C9.43915 2.5408 9.2269 2.84488 9.22637 3.13793C9.22598 3.34061 9.26931 3.438 9.5071 3.76914C10.4758 5.11812 10.5057 6.9159 9.58205 8.2846C9.34123 8.64147 9.29669 8.83136 9.38969 9.10434C9.44408 9.26395 9.64345 9.48155 9.82087 9.57493C10.0772 9.70984 10.4466 9.64617 10.6452 9.43288C10.8393 9.2244 11.1754 8.64923 11.3586 8.21189C11.9402 6.82364 11.9276 5.25427 11.3236 3.85589C11.1136 3.36991 10.642 2.64768 10.4301 2.48772C10.2401 2.34425 9.94853 2.3095 9.73787 2.40515Z" fill="white"/>
</svg>
